<?xml version="1.0" encoding="UTF-8"?>
<svg id="uuid-12f28775-54cd-4442-9e14-db08e436752e" data-name="Layer 1" xmlns="http://www.w3.org/2000/svg" viewBox="0 0 48 48">
  <path d="M13.78,30.33c.74-.29,19.31,0,20.56,0,1.09.53.2,1.59.2,1.59H13.5s-1.06-1.23.27-1.59ZM15.91,34.03c.32,0,14.72.16,16.65-.11,1.63-.66,1.7-1.49,1.7-1.49H13.76s.47,1.49,2.15,1.59Z" fill="#5bc9a5"/>
  <path d="M3.65,38.47c-.5-.7-.49-1.93-.4-2.49-.32-.14-.28-.06-.35-.34-.59-2.46-1.5-11.62.87-14.09.77-1.11,1.97-2,3.01-2.61-1.85-.19-1.9-1.16-1.98-1.48-.13-.53-.14-1.26.19-1.72.52-.65,1.96-.61,3.51-.51.54,0,1.34.15,1.58.5.05-.1,2.15-4.85,4.54-5.96,2.05-1.37,14.91-1,17.53-.51,2.19.51,4.12,3.64,5.62,6.41.62-.49,1.29-.42,1.53-.44,1.55-.1,2.99-.14,3.5.49.7.96.05,2.68-.52,2.86-.3.2-.96.31-1.62.38,1.01.46,2,.96,3.15,2.3,3,4.27,1.68,13.66,1.68,13.79-.04.46-.56.67-.9.72.12.76.27,2.12-.52,2.89-.91.52-5.4.85-6.53-.16-.45-.47-.5-1.42-.48-2.07-7.59.3-18.79.24-26.23.02.03,1.03-.11,2.08-.79,2.26-.58.33-4.74,1.01-6.41-.24ZM4.33,37.86c.78.61,4.25.54,5.51-.03.1-.15.1-.73.09-1.4-2.58-.09-4.62-.19-5.78-.31-.07.42-.12,1.13.18,1.75ZM37.98,36.4c-.03.62.03,1.28.19,1.45.71.63,4.6.38,5.34.09.3-.34.3-1.26.19-1.99-1.29.2-3.29.34-5.72.45ZM3.72,35.16c4.55.61,39.41.75,40.87-.32,0-.16,1.2-9.2-1.5-13.03-1.36-1.67-3.32-2.19-4.37-2.76l-29.66-.26c-.5.21-3.28,1.43-4.6,3.33-1.85,1.94-1.42,9.94-.74,13.04ZM5.7,16.29c-.19.07-.09,1.22.22,1.48.32.23,1.46.35,2.35.38.79-.16,1.02-.94,1.31-1.48-.1-.3-.22-.45-.61-.5-.03,0-2.42-.3-3.28.13ZM38.25,16.55c.07.12.66,1.23.86,1.59,1.1-.02,2.44-.16,2.73-.35.24-.18.52-1.07.25-1.51-.42-.41-3.01-.15-3.35-.11-.27.04-.4.16-.49.39ZM9.92,17.89l28.14.25c-.65-.9-3.53-7.62-6.1-7.99-3.02-.57-15.19-.73-16.88.4-1.88.68-4.64,6.63-5.17,7.34ZM39.83,27.82c-1.38.14-3.76.09-5.12-.02-.32-.09-.86-.22-1.12-.75-.54-1.1.84-2.12,1.28-2.45.85-.58,1.71-1.04,2.59-1.39,1.21-.49,2.12-.57,2.78-.24.44.22.79.59.9,1.15.08.4.18,1.22.18,1.63,0,.77-.32,1.81-1.5,2.08ZM34.9,26.9c1.22.02,3.58,0,4.79,0,.58-.21.74-.71.73-1.16-.02-.37-.09-.91-.16-1.47-.05-.22-.21-.4-.41-.5-.28-.14-.86-.2-2.04.27-.81.32-1.62.76-2.4,1.29-.74.55-1.03.94-1,1.3.07.18.27.24.5.27ZM12.75,27.81c-1.36,0-5.16-.01-5.16-.01-.29-.09-.54-.23-.75-.42-1.13-.86-.52-3.2-.52-3.2.17-.62.47-1.01.92-1.22.66-.32,1.57-.24,2.78.24.87.35,1.74.81,2.57,1.38.46.34,1.79,1.35,1.32,2.43-.12.24-.41.66-1.16.8ZM13.08,26.62c.04-.38-.29-.75-1.02-1.3-.76-.52-1.57-.95-2.38-1.27-1.18-.47-1.76-.41-2.04-.27-.21.1-.34.29-.43.58-.07.48-.44,2.14.58,2.55,1.28,0,5.14.16,5.29-.28ZM41.15,24.1c.08.4.15,1.13.18,1.63" fill="#7e9ba3"/>
</svg>